<?xml version="1.0" standalone="no"?><!DOCTYPE svg PUBLIC "-//W3C//DTD SVG 1.1//EN" "http://www.w3.org/Graphics/SVG/1.1/DTD/svg11.dtd"><svg t="1776322124849" class="icon" viewBox="0 0 1024 1024" version="1.1" xmlns="http://www.w3.org/2000/svg" p-id="7318" xmlns:xlink="http://www.w3.org/1999/xlink" width="200" height="200"><path d="M918.76 8.4h-811.8C52.75 8.4 8.4 52.75 8.4 106.96v811.8c0 54.2 44.35 98.55 98.55 98.55h811.8c54.2 0 98.55-44.35 98.55-98.55v-811.8c0.02-54.21-44.33-98.56-98.54-98.56z m-644 210c42.64 0 77.2 34.56 77.2 77.2s-34.56 77.2-77.2 77.2-77.2-34.56-77.2-77.2 34.57-77.2 77.2-77.2z m577.46 242.01L565.06 747.56c-14.59 14.59-37.38 16.3-53.9 5.15a42.13 42.13 0 0 1-10.62-7.73L389.97 634.41 231.55 792.82c-16.54 16.54-43.61 16.54-60.15 0s-16.54-43.61 0-60.15l188.34-188.34c8.31-8.31 19.27-12.44 30.23-12.4 10.95-0.04 21.92 4.09 30.23 12.4l113.9 113.9 257.98-257.98c16.54-16.54 43.61-16.54 60.15 0 16.53 16.55 16.53 43.61-0.01 60.16z" fill="#FF4181" p-id="7319"></path></svg>